<svg width="90" height="23" viewBox="0 0 90 23" fill="none" xmlns="http://www.w3.org/2000/svg">
<mask id="mask0" mask-type="alpha" maskUnits="userSpaceOnUse" x="0" y="0" width="90" height="23">
<path fill-rule="evenodd" clip-rule="evenodd" d="M0.000244141 0H90V22.6749H0.000244141V0Z" fill="white"/>
</mask>
<g mask="url(#mask0)">
<path fill-rule="evenodd" clip-rule="evenodd" d="M0.742244 10.5519V10.5449H86.9822L77.7732 1.33588L77.7762 1.33388C77.6422 1.19188 77.5592 1.00188 77.5592 0.791878C77.5592 0.354878 77.9152 -0.00012207 78.3522 -0.00012207C78.5612 -0.00012207 78.7512 0.0828779 78.8922 0.214878L78.9002 0.221878C78.9082 0.230878 90.0002 11.3379 90.0002 11.3379C90.0002 11.3379 78.9082 22.4449 78.9002 22.4529L78.8922 22.4599C78.7512 22.5929 78.5612 22.6749 78.3522 22.6749C77.9152 22.6749 77.5592 22.3209 77.5592 21.8819C77.5592 21.6729 77.6422 21.4849 77.7762 21.3429L77.7732 21.3399L86.9822 12.1309H0.742244V12.1239C0.328244 12.0989 0.000244141 11.7569 0.000244141 11.3379C0.000244141 10.9179 0.328244 10.5779 0.742244 10.5519Z" fill="white"/>
</g>
</svg>
