<svg width="184" height="45" viewBox="0 0 184 45" fill="none" xmlns="http://www.w3.org/2000/svg">
<path fill-rule="evenodd" clip-rule="evenodd" d="M70.4492 22.4619C70.4285 21.8804 70.3298 21.3352 70.1533 20.8263C69.9767 20.3175 69.7171 19.8762 69.3744 19.5023C69.0317 19.1285 68.606 18.8325 68.0971 18.6144C67.5883 18.3963 66.9912 18.2873 66.3058 18.2873C65.6827 18.2873 65.096 18.3963 64.5456 18.6144C63.9952 18.8325 63.5175 19.1285 63.1125 19.5023C62.7075 19.8762 62.3752 20.3175 62.1156 20.8263C61.856 21.3352 61.7054 21.8804 61.6639 22.4619H70.4492ZM73.4089 23.6458V24.1442C73.4089 24.3104 73.3985 24.4765 73.3777 24.6427H61.6639C61.6846 25.2658 61.8248 25.8525 62.0844 26.4029C62.3441 26.9533 62.6919 27.431 63.1281 27.836C63.5643 28.241 64.0679 28.5577 64.6391 28.7862C65.2102 29.0146 65.8177 29.1288 66.4616 29.1288C67.4585 29.1288 68.3204 28.9108 69.0473 28.4746C69.7743 28.0385 70.3454 27.5089 70.7608 26.8858L72.8169 28.5369C72.0277 29.5754 71.0983 30.3387 70.0287 30.8267C68.9591 31.3148 67.77 31.5588 66.4616 31.5588C65.34 31.5588 64.3016 31.3719 63.3462 30.9981C62.3908 30.6242 61.5704 30.0998 60.885 29.4248C60.1996 28.7498 59.6596 27.9346 59.265 26.9792C58.8704 26.0238 58.6731 24.9646 58.6731 23.8015C58.6731 22.6592 58.8652 21.6052 59.2494 20.6394C59.6337 19.6736 60.1685 18.8481 60.8539 18.1627C61.5393 17.4773 62.3492 16.9425 63.2839 16.5583C64.2185 16.174 65.2258 15.9819 66.3058 15.9819C67.3858 15.9819 68.3671 16.1585 69.2498 16.5115C70.1325 16.8646 70.8802 17.3735 71.4929 18.0381C72.1056 18.7027 72.5781 19.5075 72.9104 20.4525C73.2427 21.3975 73.4089 22.4619 73.4089 23.6458ZM78.75 31.1538H75.8216V7.60154H78.75V31.1538ZM85.0881 31.1538H82.1596V16.3869H85.0881V31.1538ZM95.6943 18.7858H91.7689V26.4808C91.7689 27.3739 91.935 28.0125 92.2673 28.3967C92.5996 28.781 93.1292 28.9731 93.8562 28.9731C94.1262 28.9731 94.4169 28.9419 94.7285 28.8796C95.04 28.8173 95.3204 28.7238 95.5696 28.5992L95.6631 30.9981C95.31 31.1227 94.9206 31.2213 94.4948 31.294C94.0691 31.3667 93.6277 31.4031 93.1708 31.4031C91.7792 31.4031 90.7148 31.0189 89.9775 30.2504C89.2402 29.4819 88.8716 28.3292 88.8716 26.7923V18.7858H86.0366V16.3869H88.8716V12.15H91.7689V16.3869H95.6943V18.7858ZM107.796 22.4619C107.775 21.8804 107.676 21.3352 107.5 20.8263C107.323 20.3175 107.064 19.8762 106.721 19.5023C106.378 19.1285 105.953 18.8325 105.444 18.6144C104.935 18.3963 104.338 18.2873 103.652 18.2873C103.029 18.2873 102.443 18.3963 101.892 18.6144C101.342 18.8325 100.864 19.1285 100.459 19.5023C100.054 19.8762 99.7217 20.3175 99.4621 20.8263C99.2025 21.3352 99.0519 21.8804 99.0104 22.4619H107.796ZM110.755 23.6458V24.1442C110.755 24.3104 110.745 24.4765 110.724 24.6427H99.0104C99.0312 25.2658 99.1714 25.8525 99.431 26.4029C99.6906 26.9533 100.038 27.431 100.475 27.836C100.911 28.241 101.414 28.5577 101.986 28.7862C102.557 29.0146 103.164 29.1288 103.808 29.1288C104.805 29.1288 105.667 28.9108 106.394 28.4746C107.121 28.0385 107.692 27.5089 108.107 26.8858L110.163 28.5369C109.374 29.5754 108.445 30.3387 107.375 30.8267C106.306 31.3148 105.117 31.5588 103.808 31.5588C102.687 31.5588 101.648 31.3719 100.693 30.9981C99.7373 30.6242 98.9169 30.0998 98.2316 29.4248C97.5462 28.7498 97.0062 27.9346 96.6116 26.9792C96.2169 26.0238 96.0196 24.9646 96.0196 23.8015C96.0196 22.6592 96.2117 21.6052 96.596 20.6394C96.9802 19.6736 97.515 18.8481 98.2004 18.1627C98.8858 17.4773 99.6958 16.9425 100.63 16.5583C101.565 16.174 102.572 15.9819 103.652 15.9819C104.732 15.9819 105.714 16.1585 106.596 16.5115C107.479 16.8646 108.227 17.3735 108.839 18.0381C109.452 18.7027 109.925 19.5075 110.257 20.4525C110.589 21.3975 110.755 22.4619 110.755 23.6458ZM116.034 38.6308H113.106V16.3869H115.972V18.6923H116.065C116.543 17.9031 117.244 17.254 118.168 16.7452C119.093 16.2363 120.167 15.9819 121.393 15.9819C122.493 15.9819 123.496 16.1792 124.399 16.5738C125.303 16.9685 126.081 17.5188 126.736 18.225C127.39 18.9312 127.893 19.7567 128.247 20.7017C128.6 21.6467 128.776 22.6592 128.776 23.7392C128.776 24.8192 128.6 25.8369 128.247 26.7923C127.893 27.7477 127.395 28.5785 126.751 29.2846C126.107 29.9908 125.328 30.5463 124.415 30.9513C123.501 31.3563 122.473 31.5588 121.33 31.5588C120.271 31.5588 119.274 31.3304 118.34 30.8735C117.405 30.4165 116.668 29.7727 116.128 28.9419H116.034V38.6308ZM125.754 23.7392C125.754 23.0538 125.65 22.3892 125.443 21.7454C125.235 21.1015 124.923 20.5304 124.508 20.0319C124.093 19.5335 123.579 19.1388 122.966 18.8481C122.353 18.5573 121.642 18.4119 120.832 18.4119C120.084 18.4119 119.404 18.5573 118.791 18.8481C118.179 19.1388 117.654 19.5335 117.218 20.0319C116.782 20.5304 116.444 21.1015 116.206 21.7454C115.967 22.3892 115.847 23.0642 115.847 23.7704C115.847 24.4765 115.967 25.1515 116.206 25.7954C116.444 26.4392 116.782 27.0052 117.218 27.4933C117.654 27.9813 118.179 28.3708 118.791 28.6615C119.404 28.9523 120.084 29.0977 120.832 29.0977C121.642 29.0977 122.353 28.9471 122.966 28.646C123.579 28.3448 124.093 27.945 124.508 27.4465C124.923 26.9481 125.235 26.3769 125.443 25.7331C125.65 25.0892 125.754 24.4246 125.754 23.7392ZM134.086 31.1538H131.158V16.3869H134.086V31.1538ZM141.078 23.3965L135.689 16.3869H139.303L142.917 21.465L146.562 16.3869H149.988L144.661 23.3654L150.612 31.1538H146.967L142.854 25.3904L138.68 31.1538H135.159L141.078 23.3965ZM162.152 22.4619C162.132 21.8804 162.033 21.3352 161.856 20.8263C161.68 20.3175 161.42 19.8762 161.078 19.5023C160.735 19.1285 160.309 18.8325 159.8 18.6144C159.291 18.3963 158.694 18.2873 158.009 18.2873C157.386 18.2873 156.799 18.3963 156.249 18.6144C155.698 18.8325 155.221 19.1285 154.816 19.5023C154.411 19.8762 154.078 20.3175 153.819 20.8263C153.559 21.3352 153.408 21.8804 153.367 22.4619H162.152ZM165.112 23.6458V24.1442C165.112 24.3104 165.102 24.4765 165.081 24.6427H153.367C153.388 25.2658 153.528 25.8525 153.788 26.4029C154.047 26.9533 154.395 27.431 154.831 27.836C155.267 28.241 155.771 28.5577 156.342 28.7862C156.913 29.0146 157.521 29.1288 158.165 29.1288C159.162 29.1288 160.023 28.9108 160.75 28.4746C161.477 28.0385 162.048 27.5089 162.464 26.8858L164.52 28.5369C163.731 29.5754 162.801 30.3387 161.732 30.8267C160.662 31.3148 159.473 31.5588 158.165 31.5588C157.043 31.5588 156.005 31.3719 155.049 30.9981C154.094 30.6242 153.273 30.0998 152.588 29.4248C151.903 28.7498 151.363 27.9346 150.968 26.9792C150.573 26.0238 150.376 24.9646 150.376 23.8015C150.376 22.6592 150.568 21.6052 150.953 20.6394C151.337 19.6736 151.872 18.8481 152.557 18.1627C153.242 17.4773 154.052 16.9425 154.987 16.5583C155.922 16.174 156.929 15.9819 158.009 15.9819C159.089 15.9819 160.07 16.1585 160.953 16.5115C161.836 16.8646 162.583 17.3735 163.196 18.0381C163.809 18.7027 164.281 19.5075 164.613 20.4525C164.946 21.3975 165.112 22.4619 165.112 23.6458ZM170.453 31.1538H167.525V7.60154H170.453V31.1538ZM181.807 20.1254C181.475 19.5854 181.007 19.144 180.405 18.8013C179.803 18.4587 179.128 18.2873 178.38 18.2873C178.048 18.2873 177.715 18.3237 177.383 18.3963C177.051 18.469 176.755 18.5833 176.495 18.739C176.236 18.8948 176.028 19.0921 175.872 19.331C175.716 19.5698 175.638 19.8658 175.638 20.2188C175.638 20.8419 175.919 21.304 176.48 21.6052C177.04 21.9063 177.882 22.1815 179.003 22.4308C179.709 22.5969 180.363 22.7942 180.966 23.0227C181.568 23.2512 182.093 23.5367 182.539 23.8794C182.986 24.2221 183.333 24.6323 183.583 25.11C183.832 25.5877 183.957 26.1485 183.957 26.7923C183.957 27.6646 183.79 28.4019 183.458 29.0042C183.126 29.6065 182.684 30.0998 182.134 30.484C181.584 30.8683 180.955 31.1435 180.249 31.3096C179.543 31.4758 178.816 31.5588 178.068 31.5588C176.947 31.5588 175.851 31.3408 174.782 30.9046C173.712 30.4685 172.824 29.8039 172.118 28.9108L174.205 27.135C174.6 27.7165 175.145 28.2046 175.841 28.5992C176.537 28.9938 177.3 29.1912 178.131 29.1912C178.505 29.1912 178.863 29.1548 179.206 29.0821C179.548 29.0094 179.86 28.89 180.14 28.7238C180.421 28.5577 180.644 28.3396 180.81 28.0696C180.976 27.7996 181.059 27.4569 181.059 27.0415C181.059 26.3562 180.732 25.8473 180.078 25.515C179.424 25.1827 178.463 24.8712 177.196 24.5804C176.698 24.4558 176.194 24.3052 175.685 24.1287C175.176 23.9521 174.714 23.7081 174.299 23.3965C173.883 23.085 173.546 22.6956 173.286 22.2283C173.027 21.761 172.897 21.1846 172.897 20.4992C172.897 19.71 173.058 19.0298 173.38 18.4587C173.702 17.8875 174.122 17.4202 174.642 17.0567C175.161 16.6933 175.753 16.4233 176.417 16.2467C177.082 16.0702 177.767 15.9819 178.473 15.9819C179.533 15.9819 180.556 16.1896 181.542 16.605C182.529 17.0204 183.292 17.6227 183.832 18.4119L181.807 20.1254Z" fill="white"/>
<path fill-rule="evenodd" clip-rule="evenodd" d="M19.9038 0L0 11.082V22.5L19.9038 11.4624V0ZM19.719 33.5796L0 22.547V33.9714L19.719 45L39.8077 33.7331V22.5L19.719 33.5796ZM39.7853 22.5L29.332 16.7003V5.11364L39.8077 11.0141L39.7853 22.5Z" fill="#379F7A"/>
</svg>
