<svg width="39" height="32" viewBox="0 0 39 32" fill="none" xmlns="http://www.w3.org/2000/svg">
<path opacity="0.4" fill-rule="evenodd" clip-rule="evenodd" d="M39 3.8C37.8947 5.43334 36.5584 6.82499 34.9911 7.975C35.0076 8.20833 35.0159 8.55833 35.0159 9.025C35.0159 11.1917 34.7024 13.3542 34.0755 15.5125C33.4486 17.6708 32.4959 19.7417 31.2173 21.725C29.9388 23.7083 28.4169 25.4625 26.6516 26.9875C24.8864 28.5125 22.7583 29.7292 20.2671 30.6375C17.776 31.5458 15.1117 32 12.2741 32C7.80328 32 3.71195 30.7917 0 28.375C0.577414 28.4417 1.22081 28.475 1.9302 28.475C5.64215 28.475 8.94986 27.325 11.8534 25.025C10.1212 24.9917 8.57044 24.4542 7.20114 23.4125C5.83185 22.3708 4.8915 21.0417 4.38008 19.425C4.92449 19.5083 5.42766 19.55 5.88959 19.55C6.59899 19.55 7.30012 19.4583 7.99302 19.275C6.1453 18.8917 4.61517 17.9625 3.4026 16.4875C2.19003 15.0125 1.58376 13.3 1.58376 11.35V11.25C2.70559 11.8833 3.90989 12.225 5.1967 12.275C4.10786 11.5417 3.24175 10.5833 2.59835 9.4C1.95495 8.21666 1.63325 6.93334 1.63325 5.55C1.63325 4.08333 1.99619 2.72501 2.72208 1.475C4.71828 3.95835 7.14751 5.94583 10.0098 7.4375C12.8722 8.92917 15.9365 9.75833 19.203 9.925C19.0711 9.29166 19.0051 8.675 19.0051 8.075C19.0051 5.84166 19.7846 3.93751 21.3436 2.3625C22.9026 0.787492 24.7874 0 26.9981 0C29.3078 0 31.2544 0.849991 32.8382 2.55C34.6364 2.2 36.3274 1.55 37.9112 0.6C37.3008 2.51668 36.1295 3.99999 34.3972 5.05C35.9315 4.88333 37.4657 4.46667 39 3.8Z" fill="white"/>
</svg>
